<svg version="1.1" xmlns="http://www.w3.org/2000/svg" viewBox="0 0 1046.9571876667378 499.58708612753" width="1046.9571876667378" height="499.58708612753">
  <!-- svg-source:excalidraw -->
  
  <defs>
    <style class="style-fonts">
      @font-face {
        font-family: "Virgil";
        src: url("https://excalidraw.com/Virgil.woff2");
      }
      @font-face {
        font-family: "Cascadia";
        src: url("https://excalidraw.com/Cascadia.woff2");
      }
      @font-face {
        font-family: "Assistant";
        src: url("https://excalidraw.com/Assistant-Regular.woff2");
      }
    </style>
    
  </defs>
  <g stroke-linecap="round" transform="translate(330.5787107992978 121.38374144321715) rotate(0 100.009649008324 172.87382185724584)"><path d="M32 0 C67.4 -4.74, 95.81 0.45, 168.02 0 C190.2 0.65, 200.59 11.49, 200.02 32 C198.54 94.51, 197.06 155.66, 200.02 313.75 C202.59 337.46, 190.75 345.02, 168.02 345.75 C113.91 342.24, 60.51 343.78, 32 345.75 C12.8 348.45, 0.39 331.72, 0 313.75 C-5.09 236.29, -3.68 154.31, 0 32 C-1.31 10.58, 13.85 0.31, 32 0" stroke="none" stroke-width="0" fill="#e9ecef"></path><path d="M32 0 C85.86 -0.09, 136.62 1.06, 168.02 0 M168.02 0 C188.24 1.59, 201.36 9.67, 200.02 32 M200.02 32 C198.83 101.66, 196.51 174.37, 200.02 313.75 M200.02 313.75 C198.13 334.26, 187.71 344.32, 168.02 345.75 M168.02 345.75 C117.62 344.38, 70.41 346.5, 32 345.75 M32 345.75 C11.24 346.39, -1.34 335.12, 0 313.75 M0 313.75 C-0.66 240.49, 0.74 167.11, 0 32 M0 32 C0.09 12.51, 10.86 -1.47, 32 0" stroke="#1e1e1e" stroke-width="2.5" fill="none" stroke-dasharray="8 10"></path></g><g mask="url(#mask-o5szasraqjZzqc62gfl55)" stroke-linecap="round"><g transform="translate(426.80035794009336 273.8539829384397) rotate(0 1.6447973204476511 44.27456008716075)"><path d="M-0.31 -1.09 C0.23 13.51, 2.27 73.13, 2.92 87.95 M1.73 0.96 C2.11 15.67, 1.57 74.54, 1.77 89.18" stroke="#1e1e1e" stroke-width="2" fill="none"></path></g><g transform="translate(426.80035794009336 273.8539829384397) rotate(0 1.6447973204476511 44.27456008716075)"><path d="M-6.81 65.69 C-6.22 71.47, -3.07 78.95, 1.77 89.18 M-6.81 65.69 C-5.86 72.11, -2.98 77.22, 1.77 89.18" stroke="#1e1e1e" stroke-width="2" fill="none"></path></g><g transform="translate(426.80035794009336 273.8539829384397) rotate(0 1.6447973204476511 44.27456008716075)"><path d="M10.29 65.67 C6.24 71.41, 4.74 78.89, 1.77 89.18 M10.29 65.67 C7.11 71.98, 5.85 77.1, 1.77 89.18" stroke="#1e1e1e" stroke-width="2" fill="none"></path></g></g><mask id="mask-o5szasraqjZzqc62gfl55"><rect x="0" y="0" fill="#fff" width="530.0899525809887" height="462.4031031127612"></rect><rect x="383.226405260541" y="298.1285430256004" fill="#000" width="90.4375" height="40" opacity="1"></rect></mask><g transform="translate(383.2264052605408 298.12854302560044) rotate(0 44.877086436003424 19.770174635951406)"><text x="45.21875" y="0" font-family="Virgil, Segoe UI Emoji" font-size="16px" fill="#2f9e44" text-anchor="middle" style="white-space: pre;" direction="ltr" dominant-baseline="text-before-edge">Concurrent </text><text x="45.21875" y="20" font-family="Virgil, Segoe UI Emoji" font-size="16px" fill="#2f9e44" text-anchor="middle" style="white-space: pre;" direction="ltr" dominant-baseline="text-before-edge">API calls</text></g><g stroke-linecap="round" transform="translate(358.49518531386093 194.96977704676078) rotate(0 72.5 35.5)"><path d="M17.75 0 C42.8 0.06, 72.22 -3.72, 127.25 0 C136.79 1.88, 143.32 8.5, 145 17.75 C146.99 24.03, 143.54 33.59, 145 53.25 C141.58 62.48, 142.39 68.9, 127.25 71 C96.47 68.05, 69.72 70.22, 17.75 71 C9.13 72.59, -3 62.53, 0 53.25 C-0.92 45.67, -1.77 35.51, 0 17.75 C3.1 4.18, 3.46 2.46, 17.75 0" stroke="none" stroke-width="0" fill="#a5d8ff"></path><path d="M17.75 0 C41.31 2.49, 67.22 -0.52, 127.25 0 M17.75 0 C41.27 -0.9, 64.73 -0.68, 127.25 0 M127.25 0 C138.85 -1.16, 144.45 5.76, 145 17.75 M127.25 0 C141.35 1.99, 144.29 5.38, 145 17.75 M145 17.75 C145.19 29.01, 147 40.33, 145 53.25 M145 17.75 C145.91 30.31, 144.82 41.6, 145 53.25 M145 53.25 C143.56 66.65, 140.32 69.27, 127.25 71 M145 53.25 C145.86 64.08, 140 69.4, 127.25 71 M127.25 71 C91.82 69.48, 55.87 69.13, 17.75 71 M127.25 71 C101.89 69.96, 76.04 70.74, 17.75 71 M17.75 71 C6.25 69.59, -0.45 67.02, 0 53.25 M17.75 71 C5.9 68.76, 0.7 64.11, 0 53.25 M0 53.25 C1.31 43.7, -0.81 36.69, 0 17.75 M0 53.25 C-0.03 46.05, -0.21 38.33, 0 17.75 M0 17.75 C-0.55 7.86, 4.31 -0.14, 17.75 0 M0 17.75 C1.35 4.24, 7.86 -1.85, 17.75 0" stroke="#1e1e1e" stroke-width="2" fill="none"></path></g><g transform="translate(403.4743513447447 212.96977704676078) rotate(0 27.52083396911621 17.5)"><text x="27.52083396911621" y="0" font-family="Virgil, Segoe UI Emoji" font-size="28px" fill="#1e1e1e" text-anchor="middle" style="white-space: pre;" direction="ltr" dominant-baseline="text-before-edge">EVM</text></g><g stroke-linecap="round" transform="translate(358.49518531386093 362.4902626048373) rotate(0 72.5 35.5)"><path d="M17.75 0 C43.44 1.58, 72.74 1.34, 127.25 0 C136.63 0.87, 148.23 4.65, 145 17.75 C147.47 24.66, 146.13 33.44, 145 53.25 C147.39 68.38, 137.23 68.87, 127.25 71 C87.73 71.64, 39.91 74.35, 17.75 71 C4.98 73.86, -1.29 67.34, 0 53.25 C-0.51 40.92, 2.79 28.38, 0 17.75 C-2.59 6.11, 7.22 2.57, 17.75 0" stroke="none" stroke-width="0" fill="#ffec99"></path><path d="M17.75 0 C60.78 -0.37, 103.78 1.79, 127.25 0 M17.75 0 C53.47 0.13, 90.83 -0.23, 127.25 0 M127.25 0 C139.38 -1.15, 145.16 6.12, 145 17.75 M127.25 0 C138.53 0.21, 143.82 6.52, 145 17.75 M145 17.75 C143.24 31.97, 145.91 43.63, 145 53.25 M145 17.75 C145.53 29.98, 144.81 43.17, 145 53.25 M145 53.25 C143.67 65.13, 138.94 70.9, 127.25 71 M145 53.25 C144.28 65.74, 141.38 69.49, 127.25 71 M127.25 71 C85.71 72.2, 45.76 69.51, 17.75 71 M127.25 71 C92.23 71.28, 57.04 70.66, 17.75 71 M17.75 71 C5.19 69.98, 0.27 65.69, 0 53.25 M17.75 71 C4.01 72.19, -2.27 62.97, 0 53.25 M0 53.25 C-1.1 43.43, -1.02 33.24, 0 17.75 M0 53.25 C-0.81 42.83, 0.67 34.4, 0 17.75 M0 17.75 C1.46 6.4, 4.82 -0.42, 17.75 0 M0 17.75 C-0.12 7.51, 6.41 -0.63, 17.75 0" stroke="#1e1e1e" stroke-width="2" fill="none"></path></g><g transform="translate(393.40143531386093 372.9902626048373) rotate(0 37.59375 25)"><text x="37.59375" y="0" font-family="Virgil, Segoe UI Emoji" font-size="20px" fill="#1e1e1e" text-anchor="middle" style="white-space: pre;" direction="ltr" dominant-baseline="text-before-edge">Parallel</text><text x="37.59375" y="25" font-family="Virgil, Segoe UI Emoji" font-size="20px" fill="#1e1e1e" text-anchor="middle" style="white-space: pre;" direction="ltr" dominant-baseline="text-before-edge">Plugins</text></g><g stroke-linecap="round" transform="translate(560.6470928295278 194.96977704676078) rotate(0 72.50000000000011 35.5)"><path d="M17.75 0 C51.64 -0.04, 83.04 1.42, 127.25 0 M17.75 0 C57.5 -1.27, 96.9 -0.04, 127.25 0 M127.25 0 C137.34 -0.75, 145.49 7.02, 145 17.75 M127.25 0 C140.6 0.4, 144.25 4.06, 145 17.75 M145 17.75 C147.25 29.94, 147 38.83, 145 53.25 M145 17.75 C145.14 32.76, 144.45 45.75, 145 53.25 M145 53.25 C146.7 64.59, 140.02 72.68, 127.25 71 M145 53.25 C142.8 67.03, 137.39 68.82, 127.25 71 M127.25 71 C83.85 71.17, 44.84 70.41, 17.75 71 M127.25 71 C100.02 71.66, 72.87 70.38, 17.75 71 M17.75 71 C5.81 70.78, 0.94 66.4, 0 53.25 M17.75 71 C7.81 71.02, 0.61 64.19, 0 53.25 M0 53.25 C-1.37 40.58, -2.14 27.03, 0 17.75 M0 53.25 C-0.54 40.95, 0.14 29.3, 0 17.75 M0 17.75 C-1 4.2, 5.9 1.33, 17.75 0 M0 17.75 C-1.26 5.49, 8.02 1.08, 17.75 0" stroke="#1e1e1e" stroke-width="2" fill="none"></path></g><g transform="translate(595.5533428295278 205.46977704676078) rotate(0 37.59375 25)"><text x="37.59375" y="0" font-family="Virgil, Segoe UI Emoji" font-size="20px" fill="#1e1e1e" text-anchor="middle" style="white-space: pre;" direction="ltr" dominant-baseline="text-before-edge">Parallel</text><text x="37.59375" y="25" font-family="Virgil, Segoe UI Emoji" font-size="20px" fill="#1e1e1e" text-anchor="middle" style="white-space: pre;" direction="ltr" dominant-baseline="text-before-edge">Plugins</text></g><g stroke-linecap="round" transform="translate(565.8495316258868 362.4902626048373) rotate(0 72.5 35.5)"><path d="M17.75 0 C48.76 -0.54, 82.12 2.27, 127.25 0 M17.75 0 C51.13 1.08, 82.32 -0.1, 127.25 0 M127.25 0 C137.86 -1.09, 143.9 7.75, 145 17.75 M127.25 0 C137.15 -0.2, 142.82 6.41, 145 17.75 M145 17.75 C146.33 27.01, 145.48 36.13, 145 53.25 M145 17.75 C145.99 30.99, 145.42 43.72, 145 53.25 M145 53.25 C146.1 66.82, 140.85 72.75, 127.25 71 M145 53.25 C146.76 64.68, 139.65 70.88, 127.25 71 M127.25 71 C87.74 69.21, 47.03 68.86, 17.75 71 M127.25 71 C97.4 70.49, 69.08 71.02, 17.75 71 M17.75 71 C7.26 69.69, -1.48 64.36, 0 53.25 M17.75 71 C5.65 71.82, -1.6 65.06, 0 53.25 M0 53.25 C-1.47 44.97, 0.2 38.78, 0 17.75 M0 53.25 C1.08 38.55, 0.8 25.32, 0 17.75 M0 17.75 C-0.27 7.7, 6.86 -0.69, 17.75 0 M0 17.75 C-1.7 6.67, 7.91 -1.19, 17.75 0" stroke="#1e1e1e" stroke-width="2" fill="none"></path></g><g transform="translate(597.9953636876544 372.9902626048373) rotate(0 40.35416793823242 25)"><text x="40.35416793823242" y="0" font-family="Virgil, Segoe UI Emoji" font-size="20px" fill="#1e1e1e" text-anchor="middle" style="white-space: pre;" direction="ltr" dominant-baseline="text-before-edge">API</text><text x="40.35416793823242" y="25" font-family="Virgil, Segoe UI Emoji" font-size="20px" fill="#1e1e1e" text-anchor="middle" style="white-space: pre;" direction="ltr" dominant-baseline="text-before-edge">Handlers</text></g><g stroke-linecap="round" transform="translate(775.433494564923 362.4902626048373) rotate(0 72.5 35.5)"><path d="M17.75 0 C62.9 -0.49, 103.54 -1.05, 127.25 0 M17.75 0 C46.95 1.17, 77.51 1.04, 127.25 0 M127.25 0 C140.12 -1.46, 146.38 4.11, 145 17.75 M127.25 0 C139.99 -0.39, 146.8 6.79, 145 17.75 M145 17.75 C146.7 25.97, 145.1 35.63, 145 53.25 M145 17.75 C144.23 28.78, 144.69 39.81, 145 53.25 M145 53.25 C145.46 63.68, 137.98 72.97, 127.25 71 M145 53.25 C145.7 65.15, 141.29 71.7, 127.25 71 M127.25 71 C99.77 69.94, 75.64 71.72, 17.75 71 M127.25 71 C89.04 72.31, 50.91 71.35, 17.75 71 M17.75 71 C6.12 72.79, -1.83 63.47, 0 53.25 M17.75 71 C7.98 73.01, -0.22 66.43, 0 53.25 M0 53.25 C-1.03 41.24, -0.89 31.14, 0 17.75 M0 53.25 C0.83 42.33, 0.02 31.51, 0 17.75 M0 17.75 C-0.37 5.37, 7.04 0.67, 17.75 0 M0 17.75 C-1.19 5.61, 6.68 -1.08, 17.75 0" stroke="#1e1e1e" stroke-width="2" fill="none"></path></g><g transform="translate(800.2876625031554 372.9902626048373) rotate(0 47.64583206176758 25)"><text x="47.64583206176758" y="0" font-family="Virgil, Segoe UI Emoji" font-size="20px" fill="#1e1e1e" text-anchor="middle" style="white-space: pre;" direction="ltr" dominant-baseline="text-before-edge">Multi</text><text x="47.64583206176758" y="25" font-family="Virgil, Segoe UI Emoji" font-size="20px" fill="#1e1e1e" text-anchor="middle" style="white-space: pre;" direction="ltr" dominant-baseline="text-before-edge">Processor</text></g><g stroke-linecap="round" transform="translate(785.0388721426493 188.07935987523172) rotate(0 59.34594298870957 42.59896720195121)"><path d="M21.3 0 C45.53 -2.03, 68.36 0.89, 97.39 0 M21.3 0 C48.24 -1, 73.68 -1.37, 97.39 0 M97.39 0 C111.5 -1.83, 119.39 6.67, 118.69 21.3 M97.39 0 C109.97 0.83, 119.58 8.48, 118.69 21.3 M118.69 21.3 C118.01 29.12, 119.8 41.37, 118.69 63.9 M118.69 21.3 C119.98 37.47, 118.37 51.35, 118.69 63.9 M118.69 63.9 C120.12 79.62, 112.41 85.5, 97.39 85.2 M118.69 63.9 C120.05 76.72, 113.02 83.07, 97.39 85.2 M97.39 85.2 C79.84 83.89, 63.59 82.81, 21.3 85.2 M97.39 85.2 C72.93 83.75, 47.3 85.47, 21.3 85.2 M21.3 85.2 C7.4 87.16, 1.63 79.59, 0 63.9 M21.3 85.2 C8.04 86.79, -0.3 76.57, 0 63.9 M0 63.9 C1.65 56.31, 1.5 46.59, 0 21.3 M0 63.9 C0.32 46.36, 0.34 30.12, 0 21.3 M0 21.3 C-1.01 8.63, 7.2 -0.79, 21.3 0 M0 21.3 C0.96 7.93, 9.23 1.55, 21.3 0" stroke="#1e1e1e" stroke-width="2" fill="none"></path></g><g transform="translate(815.8535651313591 218.17832707718293) rotate(0 28.53125 12.5)"><text x="28.53125" y="0" font-family="Virgil, Segoe UI Emoji" font-size="20px" fill="#1e1e1e" text-anchor="middle" style="white-space: pre;" direction="ltr" dominant-baseline="text-before-edge">Cache</text></g><g stroke-linecap="round" transform="translate(785.1093550399769 184.88655091402234) rotate(0 58.83045631905861 12.931462917568354)"><path d="M66.49 -0.53 C76.76 -0.42, 89.09 1.48, 97.28 2.96 C105.46 4.44, 112.64 6.11, 115.59 8.33 C118.53 10.55, 117.8 13.87, 114.94 16.27 C112.09 18.67, 106.41 21.05, 98.45 22.74 C90.49 24.43, 77.8 26.2, 67.18 26.4 C56.55 26.6, 44.16 24.83, 34.69 23.93 C25.22 23.03, 16.08 22.85, 10.35 21.02 C4.63 19.19, 0.5 15.32, 0.34 12.97 C0.17 10.61, 3.74 8.77, 9.35 6.9 C14.96 5.03, 22.84 2.78, 33.99 1.76 C45.13 0.74, 67.59 0.75, 76.23 0.77 C84.87 0.78, 86 1.58, 85.82 1.85 M63.15 1.52 C72.99 1.19, 85.23 0.86, 93.99 1.85 C102.75 2.83, 112.06 5.08, 115.71 7.42 C119.36 9.76, 118.56 13.31, 115.88 15.88 C113.21 18.45, 107.31 21.14, 99.64 22.84 C91.97 24.54, 80.54 25.95, 69.87 26.08 C59.2 26.21, 45.58 24.54, 35.62 23.64 C25.65 22.73, 16.12 22.14, 10.08 20.65 C4.05 19.16, -0.09 16.83, -0.62 14.71 C-1.14 12.59, 1.76 10.26, 6.92 7.92 C12.08 5.57, 20.93 1.91, 30.33 0.63 C39.73 -0.65, 57.51 0.24, 63.31 0.24 C69.11 0.25, 65.2 0.28, 65.13 0.67" stroke="#1e1e1e" stroke-width="2" fill="none"></path></g><g stroke-linecap="round" transform="translate(786.5449372043263 249.59556819450353) rotate(0 56.23992857645749 13.228717492497893)"><path d="M65.13 0.21 C74.69 0.39, 84.95 2.02, 92.54 3.61 C100.14 5.2, 107.65 7.43, 110.7 9.76 C113.75 12.08, 113.64 15.2, 110.83 17.56 C108.01 19.92, 101.53 22.32, 93.82 23.91 C86.12 25.5, 74.8 26.72, 64.59 27.1 C54.38 27.49, 41.81 27.38, 32.58 26.19 C23.36 25, 14.82 22.07, 9.24 19.95 C3.67 17.83, -0.97 15.74, -0.87 13.47 C-0.77 11.21, 4.13 8.49, 9.84 6.37 C15.55 4.24, 23.48 1.55, 33.4 0.71 C43.31 -0.13, 62.47 1.37, 69.33 1.3 C76.19 1.24, 74.75 0.26, 74.56 0.32 M71.59 0.05 C81.31 0.42, 91.84 3.21, 98.3 4.98 C104.77 6.75, 108.93 8.5, 110.37 10.66 C111.81 12.82, 110.7 15.84, 106.92 17.96 C103.15 20.08, 96.07 21.99, 87.7 23.37 C79.32 24.75, 66.77 26.16, 56.67 26.23 C46.56 26.29, 35.78 25.17, 27.08 23.77 C18.37 22.37, 9.03 19.77, 4.42 17.84 C-0.19 15.9, -1.83 14.08, -0.6 12.14 C0.63 10.2, 5.04 8.05, 11.79 6.2 C18.53 4.35, 30.04 2.23, 39.89 1.03 C49.74 -0.18, 66.03 -0.88, 70.87 -1.04 C75.71 -1.2, 69.38 -0.49, 68.93 0.08" stroke="#1e1e1e" stroke-width="2" fill="none"></path></g><g stroke-linecap="round" transform="translate(141.4791669514541 194.96977704676078) rotate(0 72.5 35.5)"><path d="M17.75 0 C53.29 -0.54, 84.06 1.02, 127.25 0 M17.75 0 C43.19 1.52, 71.35 0.64, 127.25 0 M127.25 0 C138.49 0.63, 145.22 7.39, 145 17.75 M127.25 0 C139.41 0.5, 146.68 5.53, 145 17.75 M145 17.75 C145.77 30.04, 143.65 38.87, 145 53.25 M145 17.75 C145.9 31.2, 145.92 46.15, 145 53.25 M145 53.25 C144.24 66.59, 138.03 70.92, 127.25 71 M145 53.25 C146.11 66.41, 141.3 71.57, 127.25 71 M127.25 71 C90.77 68.54, 58.84 71.39, 17.75 71 M127.25 71 C87.38 71.47, 47.56 72.21, 17.75 71 M17.75 71 C6.7 72.84, 1.44 64.68, 0 53.25 M17.75 71 C8.1 70.72, -0.08 63.23, 0 53.25 M0 53.25 C2.07 47.29, -0.85 35.94, 0 17.75 M0 53.25 C-0.68 41.19, -1.03 31.29, 0 17.75 M0 17.75 C-0.04 3.96, 6.85 0.07, 17.75 0 M0 17.75 C-0.3 4.55, 7.87 -1.39, 17.75 0" stroke="#1e1e1e" stroke-width="2" fill="none"></path></g><g transform="translate(174.6666669514541 205.46977704676078) rotate(0 39.3125 25)"><text x="39.3125" y="0" font-family="Virgil, Segoe UI Emoji" font-size="20px" fill="#1e1e1e" text-anchor="middle" style="white-space: pre;" direction="ltr" dominant-baseline="text-before-edge">Tx</text><text x="39.3125" y="25" font-family="Virgil, Segoe UI Emoji" font-size="20px" fill="#1e1e1e" text-anchor="middle" style="white-space: pre;" direction="ltr" dominant-baseline="text-before-edge">Batcher</text></g><g stroke-linecap="round"><g transform="translate(506.058945089899 230.73360632713394) rotate(0 24.15418012595285 0)"><path d="M-0.19 -0.17 C7.9 -0.19, 40.42 -0.28, 48.44 -0.33 M0.72 -0.73 C8.75 -0.68, 40.01 0.09, 48.08 0.2" stroke="#1e1e1e" stroke-width="2" fill="none"></path></g><g transform="translate(506.058945089899 230.73360632713394) rotate(0 24.15418012595285 0)"><path d="M25.22 8.02 C31.52 6.05, 37.81 2.93, 48.08 0.2 M25.22 8.02 C30.61 6.54, 34.79 4.45, 48.08 0.2" stroke="#1e1e1e" stroke-width="2" fill="none"></path></g><g transform="translate(506.058945089899 230.73360632713394) rotate(0 24.15418012595285 0)"><path d="M25.55 -8.5 C31.72 -5.71, 37.92 -4.07, 48.08 0.2 M25.55 -8.5 C30.86 -6.37, 34.97 -4.86, 48.08 0.2" stroke="#1e1e1e" stroke-width="2" fill="none"></path></g></g><mask></mask><g stroke-linecap="round"><g transform="translate(707.4676470632289 230.50048759263586) rotate(0 35.93066048983928 0)"><path d="M-0.09 -1.04 C11.81 -1.07, 59.11 -1.18, 70.98 -1.02 M-1.59 1.03 C10.72 1.19, 60.69 -0.04, 73.22 -0.02" stroke="#1e1e1e" stroke-width="2" fill="none"></path></g><g transform="translate(707.4676470632289 230.50048759263586) rotate(0 35.93066048983928 0)"><path d="M49.84 8.83 C54.4 5.01, 60.66 2.85, 73.22 -0.02 M49.84 8.83 C56.41 5.13, 62.32 4.32, 73.22 -0.02" stroke="#1e1e1e" stroke-width="2" fill="none"></path></g><g transform="translate(707.4676470632289 230.50048759263586) rotate(0 35.93066048983928 0)"><path d="M49.62 -8.27 C54.12 -7.53, 60.43 -5.14, 73.22 -0.02 M49.62 -8.27 C56.4 -7.03, 62.37 -2.89, 73.22 -0.02" stroke="#1e1e1e" stroke-width="2" fill="none"></path></g></g><mask></mask><g stroke-linecap="round"><g transform="translate(503.82932846288804 398.4309904249768) rotate(0 26.383796752963804 -0.3716027711685115)"><path d="M0.61 -1.17 C9.46 -1.35, 43.11 -0.2, 51.97 0.02 M-0.53 0.82 C8.8 0.83, 45.25 -1.27, 54.27 -1.71" stroke="#1e1e1e" stroke-width="2" fill="none"></path></g><g transform="translate(503.82932846288804 398.4309904249768) rotate(0 26.383796752963804 -0.3716027711685115)"><path d="M31.26 8.07 C33.95 4.61, 41.91 5.64, 54.27 -1.71 M31.26 8.07 C40.44 4.73, 47.36 1.52, 54.27 -1.71" stroke="#1e1e1e" stroke-width="2" fill="none"></path></g><g transform="translate(503.82932846288804 398.4309904249768) rotate(0 26.383796752963804 -0.3716027711685115)"><path d="M30.36 -9.01 C33.39 -8.95, 41.53 -4.41, 54.27 -1.71 M30.36 -9.01 C39.83 -6.02, 47.08 -2.89, 54.27 -1.71" stroke="#1e1e1e" stroke-width="2" fill="none"></path></g></g><mask></mask><g stroke-linecap="round"><g transform="translate(711.9268803172508 398.72178395895827) rotate(0 28.613413379974872 -1.1148083135055344)"><path d="M0.58 -1.03 C10.2 -1.54, 47.98 -2.49, 57.44 -2.51 M-0.58 1.05 C8.93 0.67, 47.06 -0.46, 56.61 -1.12" stroke="#1e1e1e" stroke-width="2" fill="none"></path></g><g transform="translate(711.9268803172508 398.72178395895827) rotate(0 28.613413379974872 -1.1148083135055344)"><path d="M33.54 8.52 C38.2 6.09, 45.85 3.32, 56.61 -1.12 M33.54 8.52 C42.97 5.46, 51.57 0.38, 56.61 -1.12" stroke="#1e1e1e" stroke-width="2" fill="none"></path></g><g transform="translate(711.9268803172508 398.72178395895827) rotate(0 28.613413379974872 -1.1148083135055344)"><path d="M32.74 -8.57 C37.7 -6.25, 45.58 -4.27, 56.61 -1.12 M32.74 -8.57 C42.55 -4.98, 51.47 -3.43, 56.61 -1.12" stroke="#1e1e1e" stroke-width="2" fill="none"></path></g></g><mask></mask><g stroke-linecap="round"><g transform="translate(851.1088777710283 353.4528098573769) rotate(0 -1.5986581721151651 -34.34575948309461)"><path d="M-0.9 -0.61 C-1.05 -12.14, -1.7 -56.68, -2.06 -68.2 M0.83 1.68 C0.73 -10.3, -1.65 -58.29, -2.42 -70.07" stroke="#1e1e1e" stroke-width="2" fill="none"></path></g><g transform="translate(851.1088777710283 353.4528098573769) rotate(0 -1.5986581721151651 -34.34575948309461)"><path d="M7.42 -47.09 C4.24 -49.89, 4.09 -56.18, -2.42 -70.07 M7.42 -47.09 C5.25 -51.52, 2.76 -57.08, -2.42 -70.07" stroke="#1e1e1e" stroke-width="2" fill="none"></path></g><g transform="translate(851.1088777710283 353.4528098573769) rotate(0 -1.5986581721151651 -34.34575948309461)"><path d="M-9.66 -46.14 C-9.42 -49, -6.13 -55.49, -2.42 -70.07 M-9.66 -46.14 C-8.25 -50.62, -7.16 -56.39, -2.42 -70.07" stroke="#1e1e1e" stroke-width="2" fill="none"></path></g></g><mask></mask><g stroke-linecap="round"><g transform="translate(912.2242821365744 230.37768105080897) rotate(0 62.01497582196134 -0.7143546357737307)"><path d="M-0.63 -0.88 C20.26 -0.75, 104.12 -0.21, 124.73 -0.34 M1.25 1.28 C22.09 1.18, 103.45 -1.6, 124.15 -1.89" stroke="#1e1e1e" stroke-width="2" fill="none"></path></g><g transform="translate(912.2242821365744 230.37768105080897) rotate(0 62.01497582196134 -0.7143546357737307)"><path d="M100.88 7.24 C105.36 6.24, 114.49 1.17, 124.15 -1.89 M100.88 7.24 C106.58 4.35, 113.89 1.88, 124.15 -1.89" stroke="#1e1e1e" stroke-width="2" fill="none"></path></g><g transform="translate(912.2242821365744 230.37768105080897) rotate(0 62.01497582196134 -0.7143546357737307)"><path d="M100.45 -9.85 C104.89 -6.56, 114.12 -7.33, 124.15 -1.89 M100.45 -9.85 C106.15 -7.94, 113.58 -5.59, 124.15 -1.89" stroke="#1e1e1e" stroke-width="2" fill="none"></path></g></g><mask></mask><g stroke-linecap="round"><g transform="translate(297.16494073538115 230.48614778054275) rotate(0 24.15418012595285 0)"><path d="M0.14 0.17 C8.26 0.19, 40.64 0.34, 48.61 0.37 M-0.46 -0.23 C7.64 -0.37, 40.07 -0.35, 48.33 -0.4" stroke="#1e1e1e" stroke-width="2" fill="none"></path></g><g transform="translate(297.16494073538115 230.48614778054275) rotate(0 24.15418012595285 0)"><path d="M25.65 7.92 C32.12 6.16, 38.68 2.7, 48.33 -0.4 M25.65 7.92 C33.44 4.57, 42.16 1.77, 48.33 -0.4" stroke="#1e1e1e" stroke-width="2" fill="none"></path></g><g transform="translate(297.16494073538115 230.48614778054275) rotate(0 24.15418012595285 0)"><path d="M25.61 -8.6 C32.12 -5.85, 38.7 -4.81, 48.33 -0.4 M25.61 -8.6 C33.45 -5.93, 42.18 -2.71, 48.33 -0.4" stroke="#1e1e1e" stroke-width="2" fill="none"></path></g></g><mask></mask><g stroke-linecap="round"><g transform="translate(10.643932727100264 231.70156808747936) rotate(0 62.01497582196134 -0.7143546357737307)"><path d="M0.53 -0.99 C21.26 -0.91, 103.28 -0.57, 123.69 -0.49 M-0.64 1.1 C19.96 0.94, 101.56 -1.55, 122.56 -2.12" stroke="#1e1e1e" stroke-width="2" fill="none"></path></g><g transform="translate(10.643932727100264 231.70156808747936) rotate(0 62.01497582196134 -0.7143546357737307)"><path d="M99.32 7.1 C103.39 4.19, 112.26 0.8, 122.56 -2.12 M99.32 7.1 C108.41 4.25, 116 0.03, 122.56 -2.12" stroke="#1e1e1e" stroke-width="2" fill="none"></path></g><g transform="translate(10.643932727100264 231.70156808747936) rotate(0 62.01497582196134 -0.7143546357737307)"><path d="M98.83 -9.99 C102.88 -8.75, 111.87 -7.99, 122.56 -2.12 M98.83 -9.99 C108.21 -6.36, 115.99 -4.1, 122.56 -2.12" stroke="#1e1e1e" stroke-width="2" fill="none"></path></g></g><mask></mask><g stroke-linecap="round" transform="translate(312.8530051595976 51.15921999065817) rotate(0 320.74523146241063 219.2139330684359)"><path d="M32 0 C254.18 -0.77, 474.6 -0.89, 609.49 0 M32 0 C258.08 -0.75, 484.23 -0.11, 609.49 0 M609.49 0 C632.55 -1.96, 640.48 10.07, 641.49 32 M609.49 0 C632.83 0.17, 640.09 12.35, 641.49 32 M641.49 32 C641.51 135.68, 642.46 241.72, 641.49 406.43 M641.49 32 C640.8 160.71, 640.48 290.55, 641.49 406.43 M641.49 406.43 C642.07 428, 630.87 439.4, 609.49 438.43 M641.49 406.43 C642.54 425.57, 628.94 440.08, 609.49 438.43 M609.49 438.43 C459.85 436.64, 309.53 437.12, 32 438.43 M609.49 438.43 C437.09 437.65, 264.96 437.73, 32 438.43 M32 438.43 C11.36 439.99, 0.22 427.96, 0 406.43 M32 438.43 C12.6 437.61, -1.96 427.39, 0 406.43 M0 406.43 C-1.85 260.93, -2.21 115.53, 0 32 M0 406.43 C-0.3 310.77, -0.24 214.61, 0 32 M0 32 C-0.45 12.26, 10.03 0.87, 32 0 M0 32 C-2.13 12.75, 9.29 -1.51, 32 0" stroke="#1e1e1e" stroke-width="1" fill="none"></path></g><g transform="translate(605.1094457367758 10) rotate(0 24.94791603088379 22.5)"><text x="0" y="0" font-family="Virgil, Segoe UI Emoji" font-size="36px" fill="#1e1e1e" text-anchor="start" style="white-space: pre;" direction="ltr" dominant-baseline="text-before-edge">EU</text></g><g transform="translate(366.5813592120562 65.61189711251491) rotate(0 56.65625 25)"><text x="56.65625" y="0" font-family="Virgil, Segoe UI Emoji" font-size="20px" fill="#1e1e1e" text-anchor="middle" style="white-space: pre;" direction="ltr" dominant-baseline="text-before-edge">Parallelized</text><text x="56.65625" y="25" font-family="Virgil, Segoe UI Emoji" font-size="20px" fill="#1e1e1e" text-anchor="middle" style="white-space: pre;" direction="ltr" dominant-baseline="text-before-edge">EVM</text></g></svg>